<?xml version="1.0" encoding="UTF-8" standalone="no"?>
<svg width="50px" height="40px" viewBox="0 0 50 40" version="1.1" xmlns="http://www.w3.org/2000/svg" xmlns:xlink="http://www.w3.org/1999/xlink">
    <!-- Generator: Sketch 48.1 (47250) - http://www.bohemiancoding.com/sketch -->
    <title>EMI</title>
    <desc>Created with Sketch.</desc>
    <defs/>
    <g id="Page-1" stroke="none" stroke-width="1" fill="none" fill-rule="evenodd">
        <g id="EMI">
            <g id="Group-7">
                <rect id="Rectangle-17" fill="#FFFFFF" x="0" y="0" width="50" height="40"/>
                <g id="Group-60" transform="translate(8.000000, 3.000000)">
                    <rect id="Rectangle-8" stroke="#596988" stroke-width="1.4" x="0.7" y="0.7" width="27.6" height="24.6" rx="2"/>
                    <path d="M0.736842105,5.5 L27.304062,5.5" id="Line-6" stroke="#596988" stroke-width="1.4" stroke-linecap="square"/>
                    <circle id="Oval-2" fill="#596988" cx="23.5" cy="3.5" r="1.5"/>
                    <circle id="Oval-2" fill="#596988" cx="5.5" cy="3.5" r="1.5"/>
                    <g id="Group-31" transform="translate(4.000000, 12.000000)" fill="#596988">
                        <rect id="Rectangle-9" x="0" y="0" width="1.45833333" height="1.44362745"/>
                        <rect id="Rectangle-9" x="2.91666667" y="0" width="1.45833333" height="1.44362745"/>
                        <rect id="Rectangle-9" x="5.83333333" y="0" width="1.45833333" height="1.44362745"/>
                        <rect id="Rectangle-9" x="8.75" y="0" width="1.45833333" height="1.44362745"/>
                        <rect id="Rectangle-9" x="11.6666667" y="0" width="1.45833333" height="1.44362745"/>
                        <rect id="Rectangle-9" x="14.5833333" y="0" width="1.45833333" height="1.44362745"/>
                        <rect id="Rectangle-9" x="17.5" y="0" width="1.45833333" height="1.44362745"/>
                        <rect id="Rectangle-9" x="20.4166667" y="0" width="1.45833333" height="1.44362745"/>
                    </g>
                    <g id="Group-31" transform="translate(4.000000, 14.000000)" fill="#596988">
                        <rect id="Rectangle-9" x="0" y="0" width="1.45833333" height="1.44362745"/>
                        <rect id="Rectangle-9" x="2.91666667" y="0" width="1.45833333" height="1.44362745"/>
                        <rect id="Rectangle-9" x="5.83333333" y="0" width="1.45833333" height="1.44362745"/>
                        <rect id="Rectangle-9" x="8.75" y="0" width="1.45833333" height="1.44362745"/>
                        <rect id="Rectangle-9" x="11.6666667" y="0" width="1.45833333" height="1.44362745"/>
                        <rect id="Rectangle-9" x="14.5833333" y="0" width="1.45833333" height="1.44362745"/>
                        <rect id="Rectangle-9" x="17.5" y="0" width="1.45833333" height="1.44362745"/>
                        <rect id="Rectangle-9" x="20.4166667" y="0" width="1.45833333" height="1.44362745"/>
                    </g>
                    <ellipse id="Oval-3" stroke="#596988" stroke-width="1.5" fill="#FFFFFF" cx="27.5" cy="23" rx="7.5" ry="7"/>
                    <g id="Group-42" transform="translate(25.000000, 20.000000)" stroke-linecap="round">
                        <path d="M2.68358152,0.524955437 C3.40070001,1.35569336 3.66787605,2.04730332 3.48510964,2.59978531 C3.30234323,3.1522673 2.5295289,3.39141821 1.16666667,3.31723806 L3.75925926,5.7745098" id="Path-3" stroke="#596988" stroke-linejoin="round"/>
                        <path d="M0.243055556,0.360906863 L5.59027778,0.360906863" id="Line-5" stroke="#596988"/>
                        <path d="M0.243055556,1.80453431 L5.59027778,1.80453431" id="Line-5" stroke="#596988"/>
                        <polyline id="Line-5" points="0 1.57486631 3.62964397 1.57486631 5.34722222 1.57486631"/>
                    </g>
                </g>
            </g>
        </g>
    </g>
</svg>