<?xml version="1.0" encoding="UTF-8" standalone="no"?>
<svg width="50px" height="40px" viewBox="0 0 50 40" version="1.1" xmlns="http://www.w3.org/2000/svg" xmlns:xlink="http://www.w3.org/1999/xlink">
    <!-- Generator: Sketch 48.1 (47250) - http://www.bohemiancoding.com/sketch -->
    <title>free assembly</title>
    <desc>Created with Sketch.</desc>
    <defs>
        <rect id="path-1" x="0" y="0" width="50" height="40"/>
    </defs>
    <g id="Page-1" stroke="none" stroke-width="1" fill="none" fill-rule="evenodd">
        <g id="free-assembly">
            <g id="Group-14">
                <g id="Group-34">
                    <g id="Shape">
                        <mask id="mask-2" fill="white">
                            <use xlink:href="#path-1"/>
                        </mask>
                        <use id="Mask" fill="#FFFFFF" xlink:href="#path-1"/>
                        <path d="M31.9851577,22.71603 C31.3172542,22.0490271 30.2597403,22.0490271 29.6474954,22.71603 L28.8682746,23.4942 L27.6437848,22.2713614 L30.0927644,19.8256841 C32.7087199,20.6038541 35.5473098,19.9368512 37.4397032,17.9914261 C39.0538033,16.3795024 40,13.9338251 40,11.8216493 C40,11.21023 39.9443414,10.5988107 39.7217069,10.0429749 C39.554731,9.54272274 38.9424861,9.37597201 38.5528757,9.76505704 L33.9888683,14.3229102 C33.9332096,14.3784937 33.8218924,14.3784937 33.7662338,14.3229102 L30.6493506,11.21023 C30.593692,11.1546464 30.593692,11.0434793 30.6493506,10.9878957 L35.2133581,6.43004255 C35.3246753,6.3188754 35.4359926,6.0965411 35.4359926,5.92979038 C35.4359926,5.6518725 35.2690167,5.37395463 34.9350649,5.26278748 C32.4860853,4.48461743 29.0909091,5.48512178 26.9758813,7.59729762 C25.0834879,9.48713916 24.3599258,12.3774851 25.1391466,14.9343295 L22.690167,17.3800068 L18.7384045,13.433573 L19.1836735,13.044488 C19.406308,12.8221537 19.5176252,12.4330686 19.3506494,12.1551508 L18.3487941,9.48713916 C18.2931354,9.37597201 18.2374768,9.32038844 18.1818182,9.26480486 L13.0612245,6.37445897 C12.7272727,6.20770825 12.3376623,6.26329182 12.0593692,6.48562612 L10.890538,7.65288119 C10.6122449,7.93079907 10.5565863,8.31988409 10.7792208,8.65338554 L13.6734694,13.7670744 C13.729128,13.8782416 13.7847866,13.9338251 13.8961039,13.9338251 L16.567718,14.9899131 C16.9016698,15.1010802 17.2356215,15.0454966 17.458256,14.8231623 L17.903525,14.3784937 L21.8552876,18.3249276 L10.5009276,29.6083932 C9.83302412,30.2753961 9.83302412,31.3314841 10.5009276,31.9429034 L13.0612245,34.4997478 C13.729128,35.1667507 14.7866419,35.1667507 15.3988868,34.4997478 L26.6975881,23.2718657 L27.9220779,24.4947044 L27.1428571,25.2728744 C26.4749536,25.9398773 26.4749536,26.9959652 27.1428571,27.6073846 L34.0445269,34.4997478 C34.7124304,35.1667507 35.7699443,35.1667507 36.3821892,34.4997478 L38.9424861,31.9429034 C39.6103896,31.2759005 39.6103896,30.2198126 38.9424861,29.6083932 L31.9851577,22.71603 Z M17.903525,12.3774851 L16.7903525,13.5447401 C16.7346939,13.6003237 16.6790353,13.6003237 16.6233766,13.6003237 L14.7309833,12.8221537 L12.2263451,8.48663482 C12.1706865,8.43105124 12.2263451,8.31988409 12.2263451,8.26430052 L12.6159555,7.87521549 C12.6716141,7.81963192 12.7272727,7.81963192 12.83859,7.81963192 L17.1799629,10.2653092 L17.9591837,12.1551508 C17.9591837,12.2663179 17.9591837,12.3219015 17.903525,12.3774851 Z M25.6957328,22.2713614 L14.8423006,33.1101585 C14.5083488,33.4436599 14.0074212,33.4436599 13.6734694,33.1101585 L11.8923933,31.3314841 C11.5584416,30.9979826 11.5584416,30.4977304 11.8923933,30.164229 L22.7458256,19.3254319 L23.7476809,18.3249276 L26.8089054,15.2678309 L26.6419295,14.8231623 C25.8070501,12.6554029 26.3636364,10.1541421 28.0333952,8.54221839 C29.4248609,7.15262902 31.5955473,6.3188754 33.3766234,6.37445897 L29.257885,10.4876435 C28.9239332,10.821145 28.9239332,11.3213971 29.257885,11.6548986 L33.3766234,15.7680831 C33.7105751,16.1015846 34.2115028,16.1015846 34.5454545,15.7680831 L38.6641929,11.6548986 C38.7198516,13.433573 37.8849722,15.6013324 36.4935065,16.9909218 C34.8237477,18.658429 32.3747681,19.1586812 30.2040816,18.3805111 L29.7588126,18.2137604 L26.6975881,21.270857 L25.6957328,22.2713614 Z M37.5510204,31.3870676 L35.7699443,33.165742 C35.4359926,33.4992435 34.9350649,33.4992435 34.6011132,33.165742 L28.4786642,27.0515488 C28.1447124,26.7180474 28.1447124,26.2177952 28.4786642,25.8842937 L30.2597403,24.1056193 C30.593692,23.7721179 31.0946197,23.7721179 31.4285714,24.1056193 L37.5510204,30.2198126 C37.8849722,30.4977304 37.8849722,31.0535662 37.5510204,31.3870676 Z" fill="#596988" fill-rule="nonzero" mask="url(#mask-2)"/>
                    </g>
                </g>
            </g>
        </g>
    </g>
</svg>