<?xml version="1.0" encoding="UTF-8" standalone="no"?>
<svg width="50px" height="40px" viewBox="0 0 50 40" version="1.1" xmlns="http://www.w3.org/2000/svg" xmlns:xlink="http://www.w3.org/1999/xlink">
    <!-- Generator: Sketch 48.1 (47250) - http://www.bohemiancoding.com/sketch -->
    <title>free shipping</title>
    <desc>Created with Sketch.</desc>
    <defs>
        <rect id="path-1" x="0" y="0" width="50" height="40"/>
    </defs>
    <g id="Page-1" stroke="none" stroke-width="1" fill="none" fill-rule="evenodd">
        <g id="free-shipping">
            <g id="noun_891034">
                <g>
                    <mask id="mask-2" fill="white">
                        <use xlink:href="#path-1"/>
                    </mask>
                    <use id="Mask" fill="#FFFFFF" xlink:href="#path-1"/>
                    <g mask="url(#mask-2)" fill="#596988" fill-rule="nonzero" id="Shape">
                        <g transform="translate(25.500000, 18.000000) scale(-1, 1) translate(-25.500000, -18.000000) translate(1.000000, 2.000000)">
                            <path d="M10.5205479,24.3287671 C9.4329863,24.3287671 8.54794521,25.2138082 8.54794521,26.3013699 C8.54794521,27.3889315 9.4329863,28.2739726 10.5205479,28.2739726 C11.6081096,28.2739726 12.4931507,27.3889315 12.4931507,26.3013699 C12.4931507,25.2138082 11.6087671,24.3287671 10.5205479,24.3287671 Z M10.5205479,26.9589041 C10.157589,26.9589041 9.8630137,26.6636712 9.8630137,26.3013699 C9.8630137,25.9377534 10.1582466,25.6438356 10.5205479,25.6438356 C10.8828493,25.6438356 11.1780822,25.9377534 11.1780822,26.3013699 C11.1780822,26.6636712 10.8835068,26.9589041 10.5205479,26.9589041 Z"/>
                            <path d="M38.7941918,24.3287671 C37.7068114,24.3287671 36.8219178,25.2138082 36.8219178,26.3013699 C36.8219178,27.3889315 37.7068114,28.2739726 38.7941918,28.2739726 C39.8815722,28.2739726 40.7671233,27.3889315 40.7671233,26.3013699 C40.7671233,25.2138082 39.8815722,24.3287671 38.7941918,24.3287671 Z M38.7941918,26.9589041 C38.4312934,26.9589041 38.1367672,26.6636712 38.1367672,26.3013699 C38.1367672,25.9377534 38.4312934,25.6438356 38.7941918,25.6438356 C39.1570903,25.6438356 39.4522739,25.9377534 39.4522739,26.3013699 C39.4522739,26.6636712 39.1570903,26.9589041 38.7941918,26.9589041 Z"/>
                            <path d="M47.0625658,23.6949722 L47.0625658,21.208548 C47.0625658,17.8499364 44.4610526,15.1170387 41.2631579,15.1170387 L41.0993947,15.1170387 L35.3425395,6.846704 C35.2213289,6.67318668 35.0259737,6.56999646 34.8170789,6.56999646 L28.3684211,6.56999646 C28.0125263,6.56999646 27.7243289,6.86313556 27.7236842,7.22528723 C27.7133684,11.1714916 27.7165921,15.1157242 27.7204605,19.060614 L27.7230395,23.6614519 L26.4348553,23.6614519 L26.4348553,12.4879885 C26.4348553,12.1245223 26.1460132,11.8307259 25.7901184,11.8307259 L21.9216974,11.8307259 L20.6315789,11.8307259 L20.6315789,0.657262551 C20.6315789,0.29379636 20.3427368,0 19.9868421,0 L16.1184211,0 L12.25,0 L8.38157895,0 C8.02568421,0 7.73684211,0.29379636 7.73684211,0.657262551 L7.73684211,11.8307259 L6.44736842,11.8307259 L2.57894737,11.8307259 C2.22305263,11.8307259 1.93421053,12.1245223 1.93421053,12.4879885 L1.93421053,23.694315 C0.843315789,23.8560016 0,24.805746 0,25.9612135 C0,27.2297302 1.01223684,28.2616324 2.25657895,28.2616324 L6.63756579,28.2616324 C7.19397368,30.1591494 8.92057895,31.5479452 10.9611711,31.5479452 C13.0017632,31.5479452 14.7270789,30.1591494 15.2841316,28.2616324 L35.0066316,28.2616324 C35.5636842,30.1591494 37.2896447,31.5479452 39.3295921,31.5479452 C41.3695395,31.5479452 43.0955,30.1591494 43.6525526,28.2616324 L46.7434211,28.2616324 C47.9877632,28.2616324 49,27.2297302 49,25.9612135 C49,24.8050887 48.15475,23.8540298 47.0625658,23.6949722 Z M29.0118684,7.88517883 L34.48375,7.88517883 L39.5185,15.1170387 L32.2368421,15.1170387 L32.2368421,10.5569511 C32.2368421,10.1934849 31.9486447,9.89968855 31.5921053,9.89968855 C31.2355658,9.89968855 30.9473684,10.1934849 30.9473684,10.5569511 L30.9473684,15.7743012 C30.9473684,16.1377674 31.2355658,16.4315638 31.5921053,16.4315638 L40.7660658,16.4315638 L41.0136447,16.4315638 L41.2631579,16.4315638 C43.7499079,16.4315638 45.7730921,18.5742397 45.7730921,21.208548 L45.7730921,23.6614519 L42.4823553,23.6614519 C41.6674079,22.8490753 40.5558816,22.3469267 39.3289474,22.3469267 C38.1020132,22.3469267 36.9904868,22.8490753 36.1755395,23.6614519 L29.0125132,23.6614519 L29.0099342,19.0592995 C29.0067105,15.3345926 29.0034868,11.610543 29.0118684,7.88517883 Z M21.9216974,16.4315638 C22.0551579,16.4315638 22.1873289,16.389499 22.2982237,16.3079984 C22.4671447,16.1844331 22.5664342,15.9859398 22.5664342,15.7743012 L22.5664342,13.145251 L25.1453816,13.145251 L25.1453816,23.6614519 L14.8289474,23.6614519 L14.8289474,13.145251 L17.4078947,13.145251 L17.4078947,15.7743012 C17.4078947,15.9852825 17.5071842,16.1837758 17.6754605,16.3079984 C17.8437368,16.4315638 18.0597237,16.4650842 18.2563684,16.3987007 L19.9868421,15.8097934 L21.7173158,16.3980434 C21.7843684,16.4210476 21.8527105,16.4315638 21.9216974,16.4315638 Z M21.2769605,13.145251 L21.2769605,14.8620208 L20.1912237,14.4932965 C20.0584079,14.4472881 19.9159211,14.4479454 19.7831053,14.4926393 L18.6973684,14.8626781 L18.6973684,13.145251 L19.9868421,13.145251 L21.2769605,13.145251 Z M12.8947368,1.3145251 L15.4736842,1.3145251 L15.4736842,3.03129489 L14.3879474,2.6625706 C14.3215395,2.64022367 14.2531974,2.62905021 14.1842105,2.62905021 C14.1152237,2.62905021 14.0468816,2.64022367 13.9804737,2.66322786 L12.8947368,3.03195215 L12.8947368,1.3145251 Z M9.02631579,1.3145251 L11.6052632,1.3145251 L11.6052632,3.94357531 C11.6052632,4.15455659 11.7045526,4.35304988 11.8728289,4.4772725 C12.04175,4.60083786 12.2570921,4.63435825 12.4537368,4.56731747 L14.1842105,3.97906749 L15.9146842,4.56731747 C15.9810921,4.59032166 16.0500789,4.60083786 16.1184211,4.60083786 C16.2518816,4.60083786 16.3840526,4.55877306 16.4955921,4.4772725 C16.6638684,4.35370714 16.7631579,4.15521385 16.7631579,3.94357531 L16.7631579,1.3145251 L19.3421053,1.3145251 L19.3421053,11.8307259 L18.0526316,11.8307259 L14.1842105,11.8307259 L10.3157895,11.8307259 L9.02631579,11.8307259 L9.02631579,1.3145251 Z M7.09210526,13.145251 L8.38157895,13.145251 L9.67105263,13.145251 L9.67105263,14.8620208 L8.58531579,14.4932965 C8.4525,14.4472881 8.31001316,14.4479454 8.17719737,14.4926393 L7.09210526,14.8626781 L7.09210526,13.145251 Z M3.22368421,13.145251 L5.80263158,13.145251 L5.80263158,15.7743012 C5.80263158,15.9852825 5.90192105,16.1837758 6.07019737,16.3079984 C6.23847368,16.4315638 6.45446053,16.4650842 6.65110526,16.3987007 L8.38157895,15.8097934 L10.1120526,16.3980434 C10.1791053,16.4210476 10.2474474,16.4315638 10.3157895,16.4315638 C10.44925,16.4315638 10.5814211,16.389499 10.6929605,16.3079984 C10.8612368,16.1844331 10.9605263,15.9859398 10.9605263,15.7743012 L10.9605263,13.145251 L13.5394737,13.145251 L13.5394737,23.1770494 C12.8076974,22.6551829 11.91925,22.3469267 10.9605263,22.3469267 C9.73359211,22.3469267 8.62142105,22.8490753 7.80711842,23.6614519 L3.22368421,23.6614519 L3.22368421,13.145251 Z M2.25657895,26.9477646 C1.72338158,26.9477646 1.28947368,26.5047696 1.28947368,25.9618708 C1.28947368,25.4189719 1.72338158,24.975977 2.25657895,24.975977 L2.57894737,24.975977 L6.88901316,24.975977 C6.60855263,25.5740859 6.44736842,26.2418646 6.44736842,26.9477646 L2.25657895,26.9477646 Z M10.9605263,30.2340774 C9.18298684,30.2340774 7.73684211,28.7591802 7.73684211,26.9477646 C7.73684211,25.1350345 9.18298684,23.6614519 10.9605263,23.6614519 C12.7380658,23.6614519 14.1842105,25.1350345 14.1842105,26.9477646 C14.1842105,28.7591802 12.7380658,30.2340774 10.9605263,30.2340774 Z M15.4736842,26.9477646 C15.4736842,26.2418646 15.3125,25.5740859 15.0320395,24.975977 L25.7894737,24.975977 L35.2567895,24.975977 C34.9776184,25.5740859 34.8157895,26.2418646 34.8157895,26.9477646 L15.4736842,26.9477646 Z M39.3289474,30.2340774 C37.5514079,30.2340774 36.1052632,28.7591802 36.1052632,26.9477646 C36.1052632,25.1350345 37.5514079,23.6614519 39.3289474,23.6614519 C41.1064868,23.6614519 42.5526316,25.1350345 42.5526316,26.9477646 C42.5526316,28.7591802 41.1064868,30.2340774 39.3289474,30.2340774 Z M46.7434211,26.9477646 L43.8421053,26.9477646 C43.8421053,26.2418646 43.6802763,25.5740859 43.4004605,24.975977 L46.7434211,24.975977 C47.2766184,24.975977 47.7105263,25.4189719 47.7105263,25.9618708 C47.7105263,26.5060842 47.2766184,26.9477646 46.7434211,26.9477646 Z"/>
                        </g>
                    </g>
                </g>
            </g>
        </g>
    </g>
</svg>